<svg width="32" height="32" viewBox="0 0 32 32" fill="none" xmlns="http://www.w3.org/2000/svg">
  <defs>
    <linearGradient id="g" x1="4" y1="5" x2="28" y2="27" gradientUnits="userSpaceOnUse">
      <stop stop-color="#7aa2f7"/>
      <stop offset="1" stop-color="#bb9af7"/>
    </linearGradient>
  </defs>
  <rect width="32" height="32" rx="7" fill="#10111a"/>
  <rect x="7" y="22.5" width="18" height="4" rx="2" fill="#bb9af7" opacity="0.28"/>
  <rect x="5.5" y="16.5" width="21" height="4.5" rx="2.25" fill="#7aa2f7" opacity="0.5"/>
  <path d="M6 6.5C6 5.12 7.12 4 8.5 4h15C24.88 4 26 5.12 26 6.5v5C26 12.88 24.88 14 23.5 14H12.7l-3.5 2.8A1 1 0 0 1 7.6 16v-2H8.5C7.12 14 6 12.88 6 11.5v-5Z" fill="url(#g)"/>
</svg>
